<svg xmlns="http://www.w3.org/2000/svg" viewBox="0 0 512 512">
  <!-- Background -->
  <rect width="512" height="512" rx="108" fill="#111318"/>

  <!-- Price tag shape -->
  <g transform="translate(100, 80) scale(2.2)">
    <path d="M4 8a4 4 0 0 1 4-4h10.34a4 4 0 0 1 2.83 1.17l6.66 6.66a4 4 0 0 1 0 5.66l-8.17 8.17a4 4 0 0 1-5.66 0L4.83 16.5A4 4 0 0 1 4 14.34V8Z" fill="#34d399"/>
    <circle cx="10.5" cy="10.5" r="2.5" fill="white" opacity="0.9"/>
    <path d="M17 12v7m0 0l-3-3m3 3l3-3" stroke="white" stroke-width="2.5" stroke-linecap="round" stroke-linejoin="round"/>
  </g>

  <!-- Text -->
  <text x="256" y="420" text-anchor="middle" font-family="system-ui,-apple-system,sans-serif" font-size="72" font-weight="800" fill="#34d399">Billigst</text>
</svg>
